<svg xmlns="http://www.w3.org/2000/svg" viewBox="0 0 62.13 31.66"><g id="Layer_2" data-name="Layer 2"><g id="Layer_1-2" data-name="Layer 1"><path d="M5,17.1a1.36,1.36,0,0,0,1.17,1.5,1.37,1.37,0,0,0,1.18-1.5,1.38,1.38,0,0,0-1.18-1.5A1.37,1.37,0,0,0,5,17.1Z"/><path d="M12.88,20a1.36,1.36,0,0,0,1.17-1.5A1.36,1.36,0,0,0,12.88,17a1.36,1.36,0,0,0-1.17,1.5A1.36,1.36,0,0,0,12.88,20Z"/><path d="M39.34,11.25H23.71a1.89,1.89,0,0,0-1.89,1.89v5.51a1.06,1.06,0,0,0,0,2.07v5.51a1.89,1.89,0,0,0,1.89,1.89H39.34a1.89,1.89,0,0,0,1.89-1.89V13.14A1.89,1.89,0,0,0,39.34,11.25ZM39.1,26H24V20.75h3.67a1.07,1.07,0,0,0,0-2.13H24V13.38H39.1Z"/><path d="M52.47,1.73A117.73,117.73,0,0,0,31.06,0,117.89,117.89,0,0,0,9.65,1.73C7.7,2.11.08,3.51,0,6.91V20.75C0,22.47,2.09,23.92,5.69,25a69,69,0,0,0,12.66,2.14,5.47,5.47,0,0,0,5.36,4.54H39.34A5.45,5.45,0,0,0,44.71,27l1.82-.2a2.55,2.55,0,0,0,0,.39,1.05,1.05,0,0,0,1.21.88L51,27.58a1.07,1.07,0,0,0,1-1.06V26a31.81,31.81,0,0,0,6.85-1.91c2.09-.91,3.25-2,3.25-3.36V6.91C62,3.5,54.45,2.12,52.47,1.73ZM18.28,25a66.64,66.64,0,0,1-12-2c-2.63-.78-4.16-1.55-4.16-2.2V9.69a16.43,16.43,0,0,0,3.58,1.46,68.19,68.19,0,0,0,12.57,2.12Zm24.37,1.25a3.31,3.31,0,0,1-3.31,3.3H23.71a3.3,3.3,0,0,1-3.3-3.3V13.14a3.3,3.3,0,0,1,3.3-3.3H39.34a3.31,3.31,0,0,1,3.31,3.3Zm3.88-1.53-1.76.19V13.18c.59,0,1.18-.12,1.76-.19Zm3.37.91-1.24.2V11.31l1.24-.19ZM52,23.86V12.18l.89-.18,2.55,4.94q-1.36,3.39-2.75,6.78Zm8-3.11c0,.38-.7.87-2,1.42a20.84,20.84,0,0,1-2.78.94c.79-1.93,1.57-3.87,2.36-5.8a1.09,1.09,0,0,0,0-.9l-2.52-4.89A18.91,18.91,0,0,0,60,9.71ZM52,10a1.56,1.56,0,0,0,0-.31,1.05,1.05,0,0,0-1.21-.88l-3.28.52a1.07,1.07,0,0,0-1,1.06v.45l-2.16.23a5.47,5.47,0,0,0-5-3.38H23.71a5.45,5.45,0,0,0-5.06,3.47A68.59,68.59,0,0,1,6.31,9.12C3.67,8.33,2.13,7.57,2.13,6.91c0-1,3-2.14,7.92-3.09a115.18,115.18,0,0,1,21-1.69,115.38,115.38,0,0,1,21,1.69C57,4.77,60,5.88,60,6.91,60,8.36,53,9.83,52,10Z"/></g></g></svg>