<svg xmlns="http://www.w3.org/2000/svg" viewBox="0 0 35.84 28.23"><defs><style>.cls-1{fill:#231f20;}</style></defs><g id="Layer_2" data-name="Layer 2"><g id="Layer_1-2" data-name="Layer 1"><path class="cls-1" d="M34.79,19.89c.11-.62.24-1.28.38-1.95a25.76,25.76,0,0,0,.67-4.87c0-1.91-1.15-4.23-2.69-6.53A63.36,63.36,0,0,0,28.3.37,1.05,1.05,0,0,0,26.81.26c-.35.3-.65.63-1,.92a12.51,12.51,0,0,1-7.88,2.7A12.51,12.51,0,0,1,10,1.18,10.88,10.88,0,0,1,9.09.32,1.07,1.07,0,0,0,7.51.39,63.25,63.25,0,0,0,2.68,6.54C1.14,8.84,0,11.16,0,13.07a24.23,24.23,0,0,0,.67,4.87c.13.67.27,1.33.37,1.95,0,0-.3,2.88-.47,4.35a1.09,1.09,0,0,0,.28.86,1.07,1.07,0,0,0,.16.14l.17.11a14.65,14.65,0,0,0,1.94.86,27.8,27.8,0,0,0,5,1.28,59.42,59.42,0,0,0,9.84.74,59.46,59.46,0,0,0,9.85-.74,28.47,28.47,0,0,0,4.94-1.27,15.42,15.42,0,0,0,2-.91l.08-.06a.75.75,0,0,0,.17-.14,1.12,1.12,0,0,0,.28-.92ZM32.69,24a23.61,23.61,0,0,1-5.23,1.45,58.22,58.22,0,0,1-9.54.71,58.18,58.18,0,0,1-9.53-.71A23.82,23.82,0,0,1,3.14,24l-.49-.21c.11-1,.36-1.92.54-2.85a5.21,5.21,0,0,0,0-1c-.12-.79-.28-1.58-.45-2.37a23.5,23.5,0,0,1-.62-4.44c0-1.43,1-3.37,2.32-5.36a58.67,58.67,0,0,1,4-5.13A14.69,14.69,0,0,0,17.92,6a14.64,14.64,0,0,0,9.5-3.42,56.79,56.79,0,0,1,4,5.13c1.34,2,2.32,3.93,2.33,5.36a22.78,22.78,0,0,1-.63,4.44,23.13,23.13,0,0,0-.44,2.37,4.42,4.42,0,0,0,0,.84c.16,1,.43,2,.55,3C33,23.82,32.86,23.88,32.69,24Z"/></g></g></svg>