<svg xmlns="http://www.w3.org/2000/svg" viewBox="0 0 87.23 66.97"><g id="Layer_2" data-name="Layer 2"><g id="Layer_1-2" data-name="Layer 1"><path d="M87.1,52.93,63.89,10.22a1,1,0,0,0-.42-.46,82.49,82.49,0,0,0-10.75-5.2c-.59-.91-1.19-1.82-1.79-2.73a1.58,1.58,0,0,0-1.19-1,23.56,23.56,0,0,0-12.25,0,1.61,1.61,0,0,0-1.2,1L34.51,4.56A82.13,82.13,0,0,0,23.78,9.74a1.09,1.09,0,0,0-.43.47L.13,52.93a1.06,1.06,0,0,0,.4,1.42L7.4,58.81a1.07,1.07,0,0,0,1.5-.37L25.82,31.59a102.28,102.28,0,0,1,.27,11.29c-.13,4.95-.54,10-1,14.8a1.06,1.06,0,0,0,.57,1.08,14.76,14.76,0,0,1,3,2.28c2.91,2.64,6.55,5.93,15,5.93s12.12-3.29,15-5.93a14.76,14.76,0,0,1,3-2.28,1.09,1.09,0,0,0,.58-1.06c-.51-4.8-.92-9.86-1-14.82a102.28,102.28,0,0,1,.27-11.29L78.34,58.46a1.07,1.07,0,0,0,1.49.35l6.9-4.48A1.06,1.06,0,0,0,87.1,52.93ZM50,4.34l.78,1.2c-.81,2.08-1.63,4.15-2.45,6.23l-3-2.6a21.74,21.74,0,0,0,3.06-2.75A15,15,0,0,0,50,4.34ZM48.55,2.7A11.79,11.79,0,0,1,46.85,5,19.75,19.75,0,0,1,43.61,7.8,19.68,19.68,0,0,1,40.38,5,12.31,12.31,0,0,1,38.67,2.7,22.86,22.86,0,0,1,48.55,2.7ZM37.19,4.34a14.24,14.24,0,0,0,1.63,2.08,21.74,21.74,0,0,0,3.06,2.75l-3,2.6C38,9.69,37.22,7.62,36.41,5.54ZM7.65,56.45,2.46,53.08,4,50.3l5.36,3.48ZM25.52,28.08,10.46,52,5,48.43,24.11,13.24a32.6,32.6,0,0,1,1.43,5.33A30.71,30.71,0,0,1,25.52,28.08Zm34.1.38A94.77,94.77,0,0,0,59,42.93c.13,4.81.51,9.67,1,14.3a21.16,21.16,0,0,0-2.78,2.24C55,61.5,52.28,64,46.83,64.65c-.79,0-1.48.09-2.13.11v.06c-.72,0-1.45,0-2.17,0v0a20.18,20.18,0,0,1-2.13-.13C35,64,32.24,61.5,30,59.47a20.59,20.59,0,0,0-2.79-2.24c.48-4.63.86-9.49,1-14.3a94.77,94.77,0,0,0-.6-14.47,32.93,32.93,0,0,0,0-10.24,38.33,38.33,0,0,0-2-7.08,81.1,81.1,0,0,1,9-4.34q1.41,3.57,2.8,7.14a1.07,1.07,0,0,0,1.38.6,1.15,1.15,0,0,0,.35-.22l1.25-1.08c.67-.6,1.63-1.42,2.32-2,0,3.85,0,17.65,0,18.29s1.79,0,1.79,0V11.07a28.35,28.35,0,0,1,2.31,2.17l1.29,1.11a1.05,1.05,0,0,0,1.5-.11,1.1,1.1,0,0,0,.2-.35q1.4-3.54,2.78-7.09a81.25,81.25,0,0,1,9,4.34,37.57,37.57,0,0,0-2,7.08A32.93,32.93,0,0,0,59.62,28.46Zm2.09-.38a30.71,30.71,0,0,1,0-9.51,31.63,31.63,0,0,1,1.43-5.33L82.24,48.43,76.77,52ZM79.58,56.45,77.9,53.78l5.36-3.48,1.51,2.78Z"/></g></g></svg>