<svg xmlns="http://www.w3.org/2000/svg" viewBox="0 0 65.42 44.19"><g id="Layer_2" data-name="Layer 2"><g id="Layer_1-2" data-name="Layer 1"><path d="M63.38,29.9a7.32,7.32,0,0,0-2.46-1.55L48.14,21.88c-.24-.75-.47-1.49-.7-2.24C45.68,14,43.6,7.34,41.72,5.15A14.87,14.87,0,0,0,33.81.85a38.07,38.07,0,0,0-12-.65l-.26,0C12.41,2.14,6.35,5.84,3,11.29S-.82,23.92,1.16,32.69a1.08,1.08,0,0,0,1,.83,29.73,29.73,0,0,0,8.72-.76C13.5,35.67,21.15,44.19,28,44.19c6.14,0,12-4,17.5-7.88.77-.53,1.53-1.06,2.29-1.57.68.44,1.41.95,2.16,1.49,2.73,1.93,5.77,4.09,9,4.09,3,0,6.45-2.49,6.45-5.7A6.5,6.5,0,0,0,63.38,29.9ZM51.67,26.05C43.92,28.85,36.62,36.9,28.13,36.9a10.64,10.64,0,0,1-6-2.5,32.26,32.26,0,0,1-4.27-3.93c1.44-.55,2.89-1.13,4.34-1.71,7.87-3.16,15.9-6.38,24.74-5.11ZM3.06,31.44c-1.66-7.87-1.15-14.23,1.78-19A19.23,19.23,0,0,1,13.3,5.13a13.33,13.33,0,0,0-4,5.05C7.57,14.91,8.8,22.64,9.8,29l.28,1.83A27.6,27.6,0,0,1,3.06,31.44Zm8.83-2.82c-1-6.06-2.14-13.49-.57-17.7a12,12,0,0,1,3.8-4.55,26.78,26.78,0,0,1,7-4.07,35.88,35.88,0,0,1,11.2.61,12.75,12.75,0,0,1,6.79,3.62c1.59,1.85,3.61,8.3,5.3,13.74.12.37.23.74.35,1.1C37,20.55,29.11,23.7,21.41,26.79c-3.05,1.23-6.12,2.46-9.27,3.43C12.06,29.69,12,29.15,11.89,28.62Zm32.39,5.95C39,38.21,33.47,42.06,28,42.06s-11.89-6.73-14.8-9.94c.85-.27,1.69-.55,2.53-.85a36.74,36.74,0,0,0,5.14,4.83A12.61,12.61,0,0,0,28.13,39C38.34,39,45,29.62,54.42,27.43l1.49.76C51.64,29.22,47.86,32.08,44.28,34.57ZM59,38.2c-2.6,0-5.35-2-7.81-3.7l-1.47-1c3.12-2,6.08-3.47,8.75-3.47a5.12,5.12,0,0,1,3.47,1.43,4.4,4.4,0,0,1,1.39,3.19C63.3,36.64,60.75,38.2,59,38.2Z"/></g></g></svg>