<svg xmlns="http://www.w3.org/2000/svg" viewBox="0 0 52.18 42.97"><g id="Layer_2" data-name="Layer 2"><g id="Layer_1-2" data-name="Layer 1"><path d="M50.32,16.44a24.15,24.15,0,0,0-3.2-9.9V1.1A1.07,1.07,0,0,0,46,0,324.27,324.27,0,0,1,6.32,0,1.08,1.08,0,0,0,5.06,1.06V6.54a24.14,24.14,0,0,0-3.19,9.9Q.94,28,0,39.49a1.07,1.07,0,0,0,1.06,1.14L23.88,43A1.05,1.05,0,0,0,25,42.12c.36-1.56.71-3.12,1.07-4.68.36,1.56.71,3.11,1.07,4.67a1.06,1.06,0,0,0,1.15.85l22.81-2.33a1.07,1.07,0,0,0,1.06-1.14ZM7.18,2.19A326.84,326.84,0,0,0,45,2.19V5.83a266.7,266.7,0,0,1-37.82,0ZM29,40.76q-.95-4.11-1.88-8.21a1.07,1.07,0,0,0-2.12,0c-.62,2.73-1.25,5.47-1.87,8.2l-21-2.14q.9-11,1.78-22A22,22,0,0,1,6.71,7.93q11.16.8,22.34.68V22.87a3.25,3.25,0,0,1-.88,2.23,3.32,3.32,0,0,1-2.16,1,1.06,1.06,0,1,0,.16,2.11,5.41,5.41,0,0,0,5-5.39V8.58q7.17-.13,14.3-.65a22,22,0,0,1,2.73,8.68q.88,11,1.78,22Z"/></g></g></svg>