<svg xmlns="http://www.w3.org/2000/svg" viewBox="0 0 35.53 92.7"><g id="Layer_2" data-name="Layer 2"><g id="Layer_1-2" data-name="Layer 1"><path d="M33.06,86c0-9.35.13-20.33.23-29.31.12-11.51,2.24-23,2.24-34.72a69.7,69.7,0,0,0-1.4-15.66V1.06A1.07,1.07,0,0,0,33.06,0H2.47A1.06,1.06,0,0,0,1.41,1.06V6.29A69.71,69.71,0,0,0,0,22C0,33.64,2.12,45.16,2.24,56.67c.1,9,.19,20,.23,29.31a1.08,1.08,0,0,0-.43.86v4.8A1.06,1.06,0,0,0,3.1,92.7H14A1.06,1.06,0,0,0,15,91.64v-4.8a1.08,1.08,0,0,0-.49-.9c.12-7.26.4-16.53.68-23.82.16-4.32.33-8.66.47-13.07.12-4,.47-8,1-11.8.32-2.4.69-4.75,1.12-7,.42,2.26.8,4.61,1.11,7,.5,3.83.85,7.81,1,11.8.13,4.41.3,8.75.46,13.07.29,7.29.56,16.56.69,23.82a1.06,1.06,0,0,0-.5.9v4.8a1.07,1.07,0,0,0,1.06,1.06H32.43a1.07,1.07,0,0,0,1.07-1.06v-4.8A1.07,1.07,0,0,0,33.06,86ZM3.53,2.13H32V5.34H3.53ZM12.9,90.57H4.16V87.9H12.9Zm18.47,0H22.64V87.9h8.73Zm-.2-33.91C31.08,65.57,31,76.48,31,85.78H23.12c-.12-7.3-.4-16.5-.68-23.73-.17-4.36-.33-8.73-.47-13.06a120,120,0,0,0-1-12c-.56-4.26-1.3-8.33-2.14-12a1.08,1.08,0,0,0-2.15,0c-.84,3.68-1.58,7.73-2.14,12-.51,3.89-.86,7.94-1,12-.13,4.33-.3,8.7-.47,13.06-.28,7.23-.55,16.43-.68,23.73H4.59c0-9.3-.13-20.21-.23-29.12C4.24,45.54,2.13,34.43,2.13,22v-.88l.06-3.22.05-.14c0-1,.09-2,.16-2.93h0A45.16,45.16,0,0,1,3,9c0-.2.07-.38.1-.56.1-.6.18-1,.18-1H32.21a67.83,67.83,0,0,1,1.14,11.11s.1,1.15.06,3.38C33.41,34.43,31.29,45.54,31.17,56.66Z"/></g></g></svg>