<svg xmlns="http://www.w3.org/2000/svg" viewBox="0 0 42.11 66.17"><g id="Layer_2" data-name="Layer 2"><g id="Layer_1-2" data-name="Layer 1"><path d="M20.31,30a1.05,1.05,0,0,0,1.5,0l4.89-4.9a1.05,1.05,0,0,0,0-1.5l-4.89-4.89a1.05,1.05,0,0,0-1.5,0l-4.9,4.89a1.05,1.05,0,0,0,0,1.5Q17.85,27.54,20.31,30Zm.75-9,3.39,3.39-3.39,3.4q-1.69-1.71-3.4-3.4Z"/><path d="M36.81,13.29a18.08,18.08,0,0,0-8.27-4.73V7.48A7.36,7.36,0,0,0,28,4.63a7.56,7.56,0,0,0-4-4.06,7.46,7.46,0,0,0-5.72,0,7.55,7.55,0,0,0-4.06,4.06,7.36,7.36,0,0,0-.57,2.85V8.56A18.11,18.11,0,0,0,0,26.05V61.11a5.09,5.09,0,0,0,5.06,5.06h32a5.08,5.08,0,0,0,5.06-5.06V26.05A18,18,0,0,0,36.81,13.29ZM15.7,7.48a5.34,5.34,0,0,1,.4-2A5.42,5.42,0,0,1,19,2.53a5.37,5.37,0,0,1,4.09,0A5.42,5.42,0,0,1,26,5.44a5.34,5.34,0,0,1,.41,2v.67L25.31,8V7.38A4.19,4.19,0,0,0,25,5.76a4.3,4.3,0,0,0-2.3-2.31,4.26,4.26,0,0,0-3.25,0,4.33,4.33,0,0,0-2.3,2.31,4.18,4.18,0,0,0-.32,1.62V8q-.57,0-1.11.12Zm7.48-.1V8H18.93V7.38a2.17,2.17,0,0,1,.16-.81,2.23,2.23,0,0,1,1.16-1.16,2.16,2.16,0,0,1,1.62,0A2.21,2.21,0,0,1,23,6.57,2,2,0,0,1,23.18,7.38ZM40,61.11a3,3,0,0,1-2.94,2.94h-32a3,3,0,0,1-2.93-2.94V26.05A15.91,15.91,0,0,1,18.06,10.12h6a16.33,16.33,0,0,1,3.34.35A16,16,0,0,1,40,26.05Z"/><path d="M10.15,35.79a6.62,6.62,0,0,0-6.6,6.6V56a6.63,6.63,0,0,0,6.6,6.6H32a6.65,6.65,0,0,0,6.6-6.6V42.39a6.61,6.61,0,0,0-6.6-6.6ZM36.44,56A4.52,4.52,0,0,1,32,60.5H10.15A4.5,4.5,0,0,1,5.68,56V47.1H30v3.83a1.06,1.06,0,1,0,2.12,0V47.1h4.37Zm0-13.63V45H5.68V42.39a4.49,4.49,0,0,1,4.47-4.48H32a4.51,4.51,0,0,1,4.48,4.48Z"/></g></g></svg>