<svg xmlns="http://www.w3.org/2000/svg" viewBox="0 0 61.52 70.35"><g id="Layer_2" data-name="Layer 2"><g id="Layer_1-2" data-name="Layer 1"><path d="M23.43,3.73l-2,2.09c1,2.1,2,4.21,3,6.31l4.38-3.44a18.72,18.72,0,0,1-5.45-5ZM16,28.34c-.26,12.32-.21,24.57-1.66,36.84,4.33,2,10.34,3,16.38,3s12.06-1,16.38-3c-1.45-12.27-1.4-24.52-1.66-36.84a1.07,1.07,0,0,1,.6-1,1.06,1.06,0,0,1,1.41.5c.94,1.91,1.89,3.82,2.82,5.74L59.1,30q-2.9-7.66-5.8-15.33a6.4,6.4,0,0,0-2.43-3.13c-1.95-1.11-4-2.08-6.07-3-1-.46-2-.93-3-1.43l-3.37,7a1.12,1.12,0,0,1-1.83.44c-.75-.52-1.49-1.17-2.23-1.76V23.08a1.06,1.06,0,0,1-1.06,1.06H28.2a1.06,1.06,0,0,1-1.07-1.06V12.75L24.9,14.5a1.1,1.1,0,0,1-1.81-.41l-3.39-7c-1,.5-2,1-3,1.43-2,1-4.11,1.94-6.07,3a6.46,6.46,0,0,0-2.43,3.13L2.42,30l8.8,3.55c.93-1.92,1.88-3.83,2.81-5.74a1.07,1.07,0,0,1,1.42-.5,1.08,1.08,0,0,1,.59,1ZM47.68,33c.15,10.94.33,21.79,1.66,32.67a1.08,1.08,0,0,1-.56,1.1c-4.68,2.4-11.36,3.6-18,3.6s-13.27-1.19-17.94-3.57a1.06,1.06,0,0,1-.64-1.1C13.51,54.79,13.7,43.93,13.85,33c-.42.85-.81,1.66-1.13,2.32a1.06,1.06,0,0,1-1.38.57L.67,31.57a1.05,1.05,0,0,1-.6-1.36q3.08-8.14,6.17-16.3A8.47,8.47,0,0,1,9.61,9.69c2-1.16,4.12-2.14,6.21-3.13,1.27-.6,2.55-1.2,3.72-1.8C20.62,3.62,22.49,1,23.82.57A10,10,0,0,1,25.28.29,47.87,47.87,0,0,1,30.76,0a47.74,47.74,0,0,1,5.48.29A9.75,9.75,0,0,1,37.7.57C38.94,1,40.91,3.62,42,4.76c1.18.6,2.45,1.2,3.72,1.8,2.09,1,4.18,2,6.22,3.13a8.57,8.57,0,0,1,3.37,4.22q3.08,8.15,6.17,16.3a1.07,1.07,0,0,1-.61,1.36l-10.67,4.3a1.05,1.05,0,0,1-1.37-.57c-.32-.66-.71-1.47-1.13-2.32ZM29.26,11.09V22h3V11.09l-1.5-1.18-1.5,1.18Zm1.5-3.73A17,17,0,0,0,36.4,2.45a35.44,35.44,0,0,0-5.64-.32,35.44,35.44,0,0,0-5.64.32,17,17,0,0,0,5.64,4.91Zm9.3-1.54-2-2.09a18.59,18.59,0,0,1-5.45,5L37,12.13l3-6.31Z"/></g></g></svg>