<svg xmlns="http://www.w3.org/2000/svg" viewBox="0 0 63.55 66.93"><g id="Layer_2" data-name="Layer 2"><g id="Layer_1-2" data-name="Layer 1"><path d="M43.85,22.63H35a1.06,1.06,0,0,0,0,2.12h8.81a1.06,1.06,0,0,0,0-2.12Z"/><path d="M63.34,25,52,10a1.33,1.33,0,0,0-.37-.34A83.42,83.42,0,0,0,40.88,4.52L39.1,1.79a1.61,1.61,0,0,0-1.2-1,24.67,24.67,0,0,0-12.25,0,1.58,1.58,0,0,0-1.19,1c-.6.91-1.2,1.82-1.79,2.73A82.67,82.67,0,0,0,12,9.7a1,1,0,0,0-.33.29L.21,25a1.07,1.07,0,0,0,.16,1.44l8.34,7.66a1.06,1.06,0,0,0,1.46,0q1.86-1.74,3.71-3.49A86.47,86.47,0,0,1,14,42.82c-.25,5-.77,10-1.28,14.82a1.06,1.06,0,0,0,.57,1.08,16.09,16.09,0,0,1,3,2.23c3.06,2.64,6.94,6,15.48,6s12.41-3.34,15.47-6a16.09,16.09,0,0,1,3-2.23,1.07,1.07,0,0,0,.58-1c-.51-4.82-1-9.88-1.29-14.85a86.47,86.47,0,0,1,.13-12.19l3.71,3.49a1.07,1.07,0,0,0,1.47,0l8.34-7.66A1.06,1.06,0,0,0,63.34,25ZM38.2,4.3,39,5.5c-.81,2.08-1.63,4.16-2.44,6.23l-3-2.6A18.69,18.69,0,0,0,38.2,4.3ZM36.72,2.66a15.73,15.73,0,0,1-4.94,5.1,15.63,15.63,0,0,1-4.94-5.1A24.9,24.9,0,0,1,36.72,2.66ZM9.42,31.92,2.49,25.55,4,23.62l7.23,6.64Zm4.28-4-1,.91L5.24,21.92l6.9-9.1A31,31,0,0,1,13.7,27.9ZM29,64.66c-5.9-.62-8.9-3.21-11.34-5.31a23.31,23.31,0,0,0-2.78-2.16c.49-4.62,1-9.47,1.22-14.27a82.56,82.56,0,0,0-.36-14.5,34,34,0,0,0-2-17.32,79.44,79.44,0,0,1,9-4.33q1.39,3.56,2.8,7.13a1.08,1.08,0,0,0,1.72.38L29,12.8ZM27,11.73Q25.79,8.63,24.57,5.5l.78-1.2A18.73,18.73,0,0,0,30,9.13ZM47.78,28.42a82.56,82.56,0,0,0-.36,14.5c.24,4.8.74,9.65,1.22,14.27a22.47,22.47,0,0,0-2.77,2.16c-2.8,2.41-6.33,5.45-14.09,5.45h-.63V11l.63-.53,4.5,3.88a1.07,1.07,0,0,0,1.7-.46l2.79-7.08a79.3,79.3,0,0,1,9,4.33A34.08,34.08,0,0,0,47.78,28.42Zm2.07-.52a30.89,30.89,0,0,1,1.57-15.08l6.89,9.1-7.49,6.89Zm4.28,4c-.58-.56-1.17-1.11-1.76-1.66l7.23-6.64,1.46,1.93Z"/></g></g></svg>