<svg xmlns="http://www.w3.org/2000/svg" viewBox="0 0 39.53 92.7"><g id="Layer_2" data-name="Layer 2"><g id="Layer_1-2" data-name="Layer 1"><path d="M39.06,84c0-9.35.13-18.33.23-27.31.12-11.51.24-23,.24-34.72a69.7,69.7,0,0,0-1.4-15.66V1.06A1.07,1.07,0,0,0,37.06,0H2.47A1.06,1.06,0,0,0,1.41,1.06V6.29A69.71,69.71,0,0,0,0,22C0,33.64.12,45.16.24,56.67c.1,9,.19,18,.23,27.31a1.08,1.08,0,0,0-.43.86v6.8A1.06,1.06,0,0,0,1.1,92.7H16A1.06,1.06,0,0,0,17,91.64v-6.8a1.08,1.08,0,0,0-.49-.9c.12-7.26.4-14.53.68-21.82.16-4.32.33-8.66.47-13.07.12-4,.47-8,1-11.8.32-2.4.69-4.75,1.12-7,.42,2.26.8,4.61,1.11,7,.51,3.83.85,7.81,1,11.8.13,4.41.3,8.75.46,13.07.29,7.29.56,14.56.69,21.82a1.06,1.06,0,0,0-.5.9v6.8a1.07,1.07,0,0,0,1.06,1.06H38.43a1.07,1.07,0,0,0,1.07-1.06v-6.8A1.07,1.07,0,0,0,39.06,84ZM37.35,18.57a8.55,8.55,0,0,1-3.69-7V7.46h2.55A67.83,67.83,0,0,1,37.35,18.57ZM3.53,2.13H36V5.34H3.53ZM2.39,14.79A45.16,45.16,0,0,1,3,9c0-.2.07-.38.1-.56.1-.6.18-1,.18-1H5.88a36,36,0,0,1,0,5,8.6,8.6,0,0,1-3.64,6.08c0-1.27.12-2.53.21-3.79ZM14.9,90.57H2.16V85.9H14.9Zm22.47,0H24.64V85.9H37.37Zm-.2-33.91C37.08,65.57,37,74.48,37,83.78H25.12c-.12-7.3-.4-14.5-.68-21.73-.17-4.36-.33-8.73-.47-13.06a120,120,0,0,0-1-12c-.56-4.26-1.3-8.33-2.14-12a1.08,1.08,0,0,0-2.15,0c-.84,3.68-1.58,7.73-2.14,12-.51,3.89-.86,7.94-1,12-.13,4.33-.3,8.7-.47,13.06-.28,7.23-.55,14.43-.68,21.73H2.59c0-9.3-.13-18.21-.23-27.12C2.24,45.54,2.13,34.43,2.13,22v-.88A10.73,10.73,0,0,0,8,11.56V7.46H31.53v4.1a10.73,10.73,0,0,0,5.87,9.51c0,.29,0,.58,0,.88C37.41,34.43,37.29,45.54,37.17,56.66Z"/></g></g></svg>