<svg xmlns="http://www.w3.org/2000/svg" viewBox="0 0 61.51 66.54"><g id="Layer_2" data-name="Layer 2"><g id="Layer_1-2" data-name="Layer 1"><path d="M30.76,5.69c-3.07,0-6.75-.89-8.88-3.27C20.06,3.4,18.33,4.21,16.6,5c-2,.93-4,1.86-6,3A5,5,0,0,0,9.33,9.22a7.81,7.81,0,0,0-1.11,1.89L2.42,26.44,11.22,30c.41-.85.79-1.63,1.18-2.4l1.14-2.34a4.07,4.07,0,0,0,.36-2c.06-.58.29-1.1.87-1.15a1.06,1.06,0,0,1,1.15,1c.06,3.1,0,6.18,0,9.27a257,257,0,0,1-1.55,29.26c4,1.85,10.2,2.77,16.38,2.77s12.33-.92,16.37-2.77a256.8,256.8,0,0,1-1.54-29.26c0-3.09-.06-6.17,0-9.27a1.05,1.05,0,0,1,1.14-1c.59.05.82.57.87,1.15.11,1,0,1.17.36,2,.53,1.09.85,1.73,1.14,2.34.39.77.77,1.55,1.19,2.4l8.79-3.55q-2.9-7.67-5.8-15.33a7.21,7.21,0,0,0-1.11-1.89A5,5,0,0,0,50.86,8c-2-1.11-4-2-6-3-1.73-.8-3.46-1.61-5.28-2.59-2.13,2.38-5.8,3.27-8.87,3.27Zm0,60.85c-6.79,0-13.61-1.1-17.94-3.3a1.07,1.07,0,0,1-.64-1.11,251.42,251.42,0,0,0,1.63-29.77c0-1,0-1.94,0-2.92-.41.84-.81,1.64-1.13,2.31a1.06,1.06,0,0,1-1.38.58L.67,28a1,1,0,0,1-.6-1.36q3.08-8.14,6.17-16.3A9.83,9.83,0,0,1,7.67,7.9,7.09,7.09,0,0,1,9.61,6.14C11.7,5,13.7,4,15.71,3.09S19.65,1.25,21.57.17a1.08,1.08,0,0,1,1.5.31c1.47,2.34,5.15,3.08,7.69,3.08S37,2.82,38.45.48A1.08,1.08,0,0,1,40,.17c1.91,1.08,3.89,2,5.86,2.92s4,1.87,6.1,3.05A7.23,7.23,0,0,1,53.85,7.9a10.15,10.15,0,0,1,1.43,2.46q3.07,8.16,6.17,16.3A1.06,1.06,0,0,1,60.84,28L50.17,32.33a1.06,1.06,0,0,1-1.38-.58c-.32-.67-.71-1.47-1.12-2.31l0,2.92a251.42,251.42,0,0,0,1.63,29.77,1.06,1.06,0,0,1-.64,1.11c-4.33,2.2-11.15,3.3-17.93,3.3Z"/></g></g></svg>