<svg xmlns="http://www.w3.org/2000/svg" viewBox="0 0 69.12 81.81"><g id="Layer_2" data-name="Layer 2"><g id="Layer_1-2" data-name="Layer 1"><path d="M69.1,78.48c-.93-4.15-2-9.12-3-14.23-2.59-12.27-5.37-25.43-7.68-33-.61-2-1.84-5.26-3.42-6.66-2-1.77-5.24-2.69-7.76-3.41a6.27,6.27,0,0,0,2.55-4.89,4,4,0,0,0-.32-1.59C47.61,8.46,41.93,0,34.56,0s-13,8.46-14.86,14.74a4.18,4.18,0,0,0-.32,1.59,6.27,6.27,0,0,0,2.55,4.89c-2.49.71-5.74,1.57-7.7,3.35-1.63,1.48-2.84,4.64-3.48,6.72C8.44,38.82,5.66,52,3.08,64.25,2,69.36,1,74.33,0,78.48a1.07,1.07,0,0,0,.84,1.27l9.73,2A1.07,1.07,0,0,0,11.85,81Q13.77,72,15.71,63c.7-3.22,1.39-6.45,2.09-9.68-.14,4.5-.44,9.24-.7,13.43-.32,5.18-.6,9.52-.45,11.64a1.06,1.06,0,0,0,.79,1,57.22,57.22,0,0,0,17.12,2.23,57.27,57.27,0,0,0,17.17-2.24,1.1,1.1,0,0,0,.75-1c.13-2.14-.14-6.45-.46-11.57-.26-4.19-.56-8.93-.7-13.43q1.05,4.85,2.09,9.68Q55.35,72,57.26,80.9a1.08,1.08,0,0,0,1.27.89l9.72-2A1.07,1.07,0,0,0,69.1,78.48ZM47.61,16.33c0,3-4,4.91-7.79,6.66l-.19.09,6.16-9.19A3.08,3.08,0,0,1,47.61,16.33Zm-13-14.2c5.11,0,9.23,5.26,11.31,9.39A27.57,27.57,0,0,0,34.56,9.2a27.57,27.57,0,0,0-11.31,2.32C25.33,7.39,29.45,2.13,34.56,2.13Zm-13,14.2c0-1.31,1.33-2.34,3.13-3.11a29.75,29.75,0,0,1,9.92-1.9A30.64,30.64,0,0,1,43.86,13l-8.1,12.08a12,12,0,0,0-1.2.82,11.43,11.43,0,0,0-1.17-.8L27.1,14.56a1.06,1.06,0,1,0-1.82,1.09l4.54,7.58L29.3,23C25.55,21.24,21.51,19.35,21.51,16.33ZM10,79.5,2.32,77.89c.32-1.42.64-2.89,1-4.38l7.66,1.6C10.62,76.57,10.3,78,10,79.5Zm3.64-16.9L11.38,73,3.72,71.43c.47-2.2.95-4.46,1.43-6.75,2.58-12.23,5.35-25.34,7.62-32.76a15.51,15.51,0,0,1,1.78-4.06c1.53,4.58,3.16,9.71,3.18,15.73Q15.69,53.1,13.63,62.6Zm36.76,15a56,56,0,0,1-15.83,1.92,56,56,0,0,1-15.83-1.92c0-1,0-2.36.1-4a58.71,58.71,0,0,0,15.73,1.82,58.31,58.31,0,0,0,15.73-1.82C50.37,75.21,50.41,76.57,50.39,77.57Zm-1.1-35c-.29,9.64.34,19.23.89,28.84A56,56,0,0,1,34.56,73.3a56,56,0,0,1-15.62-1.86c.54-9.43,1-18.83.91-28.29-.1-6.41-1.88-11.75-3.47-16.52-.09-.27-.19-.55-.28-.83,2.3-1.57,5.47-2.31,8.12-3,1.32.77,2.77,1.45,4.19,2.11A23.3,23.3,0,0,1,33.81,28a1.07,1.07,0,0,0,1.5,0,20.74,20.74,0,0,1,5.4-3.12c1.42-.66,2.88-1.34,4.19-2.11,2.65.69,5.82,1.43,8.12,3-.09.28-.18.56-.28.83C51.2,31.26,49.47,36.43,49.29,42.6Zm6.2,20q-2.06-9.49-4.1-19c0-6,1.65-11.15,3.18-15.73a19.85,19.85,0,0,1,1.78,4.06c2.28,7.42,5,20.53,7.62,32.76.48,2.29,1,4.55,1.43,6.75L57.74,73Zm3.64,16.9c-.31-1.47-.63-2.93-.94-4.39l7.65-1.6c.33,1.49.64,3,1,4.38Z"/><path d="M43.68,53.34a1,1,0,0,0-1-.6H26.42a1.07,1.07,0,0,0-.94.53l-4.83,8.32a1.06,1.06,0,0,0,1.84,1.07L27,54.86H42.12l4.51,7.8a1.06,1.06,0,0,0,1.84-1.07Z"/></g></g></svg>