<svg xmlns="http://www.w3.org/2000/svg" viewBox="0 0 73.07 45.02"><g id="Layer_2" data-name="Layer 2"><g id="Layer_1-2" data-name="Layer 1"><path d="M73,37.45c-.11-.92-.13-1.72-1-2a11.38,11.38,0,0,0-.73-3.11,4.31,4.31,0,0,0-3.11-2.61,26.45,26.45,0,0,0-6.57-.34c-3,.07-6.11.15-8.13-.72a41.07,41.07,0,0,1-8.15-4.65,40.28,40.28,0,0,1-6.85-6.42c-.6-.71-1.25-4.87-1.92-9.19-.4-2.58-.81-5.22-1.24-7.26A1.07,1.07,0,0,0,34.37.3a94.47,94.47,0,0,0-15,0A85.71,85.71,0,0,1,4.55.31,1.07,1.07,0,0,0,3.3,1.36c0,1.32.07,2.59.14,3.86a37.29,37.29,0,0,1-.08,7.4,37.79,37.79,0,0,1-1.55,5.91A28.05,28.05,0,0,0,0,27.17,15.93,15.93,0,0,0,.54,30.9,18.77,18.77,0,0,0,1.22,33a1,1,0,0,0-.11.46l0,3.7c0,1.36,0,2.72,0,3.84,0,.78.77,1.58,1.35,2a3.75,3.75,0,0,0,2,.71l12.39.37,4.29.13A1.13,1.13,0,0,0,22.49,43c0-.7,0-1.39,0-2.08a5.71,5.71,0,0,1,1.35-.13,16.13,16.13,0,0,1,3.3.39c1.79.38,3.56.81,5.35,1.24C37.78,43.69,43.28,45,48.37,45a82.89,82.89,0,0,0,14.07-1.43c4.44-.83,8.27-1.94,9.86-3.11C73.08,39.92,73.16,38.74,73,37.45ZM37.3,19.53a42.71,42.71,0,0,0,6.76,6.23,42.56,42.56,0,0,0,8.58,4.89c2.43,1,5.8,1,9,.89a25.73,25.73,0,0,1,6,.27,2.34,2.34,0,0,1,1.68,1.41A10.07,10.07,0,0,1,69.94,36a51.34,51.34,0,0,1-10,2.66,71.06,71.06,0,0,1-11.43.82,57.31,57.31,0,0,1-12.79-2c-2.5-.59-5-1.18-7.52-1.58a7.34,7.34,0,0,1,4-2.73,39,39,0,0,1,8.23-1.38c2.16-.21,3-.48,2.89-1.77-.06-.61-.5-1.12-1.22-2C40.66,26.43,39.27,24.77,38,23a31.54,31.54,0,0,1-2.19-3.41ZM5.56,5.12c0-.87-.09-1.74-.12-2.59a94.75,94.75,0,0,0,14-.09,95.22,95.22,0,0,1,13.94-.1c.38,1.93.74,4.2,1.08,6.43a69.85,69.85,0,0,0,1.67,8.7l-2,.11a1.05,1.05,0,0,0-1,1.11,1.25,1.25,0,0,0,.14.5,29.54,29.54,0,0,0,3,5.08c1.2,1.65,2.56,3.28,3.91,4.87.22.3,0,.55-.34.59a38.52,38.52,0,0,0-8.35,1.45C29,32,27,33.36,25.91,35.62c-2.36-.29-4.95-.49-7.54-.68,0-6.48-3.61-10.38-7.69-14.77a58.62,58.62,0,0,1-5.37-6.38q.09-.43.15-.87A39.11,39.11,0,0,0,5.56,5.12ZM2.13,27.17a26.5,26.5,0,0,1,1.69-8c.29-.9.58-1.79.84-2.7,1.45,1.88,3,3.54,4.47,5.14,3.73,4,7,7.58,7.11,13.16C11,34.38,6,34,3.5,32.94a13.2,13.2,0,0,1-.91-2.56A13.59,13.59,0,0,1,2.13,27.17Zm68.92,11.6c-1.33,1-4.84,2-9,2.73a80.25,80.25,0,0,1-13.69,1.39c-4.86,0-10.23-1.29-15.4-2.54-1.85-.45-3.69-.89-5.4-1.26a18.65,18.65,0,0,0-3.74-.44,7.31,7.31,0,0,0-2,.24,1.8,1.8,0,0,0-1.48,1.6v1.58L16.93,42,4.54,41.59a1.57,1.57,0,0,1-.82-.33c-.24-.17-.44-.28-.44-.58,0-1.06,0-2.29,0-3.52,0-.69,0-1.37,0-2.06,3.2,1.08,8.56,1.48,14,1.88,3.63.27,7.3.54,10.37,1,2.52.39,5,1,7.55,1.57,4.38,1,8.75,2.06,13.28,2.06a71.82,71.82,0,0,0,11.76-.84,53.85,53.85,0,0,0,10.66-2.84C71,38.12,71.13,38.71,71.05,38.77Z"/></g></g></svg>