<svg xmlns="http://www.w3.org/2000/svg" viewBox="0 0 39.31 63.84"><g id="Layer_2" data-name="Layer 2"><g id="Layer_1-2" data-name="Layer 1"><path d="M39.29,25.07a1.06,1.06,0,0,0-.64-1.17c-2-.87-3.45-2.78-4.18-6.09-.79-3.58-.78-8.7.08-15.77A1.06,1.06,0,0,0,33.67.86L30.09,0a1.08,1.08,0,0,0-1.34.73,18.73,18.73,0,0,1-3.21,6.89,7.79,7.79,0,0,1-11.77,0A18.73,18.73,0,0,1,10.56.76,1.09,1.09,0,0,0,9.22,0L5.64.86A1.06,1.06,0,0,0,4.76,2c.86,7.07.87,12.19.08,15.77C4.11,21.12,2.7,23,.65,23.9A1.08,1.08,0,0,0,0,25.07C1.45,33,1.08,43.73.72,53.89c-.1,2.79-.19,5.54-.25,8.2a1.07,1.07,0,0,0,1,1.18,290.69,290.69,0,0,0,36.39,0,1.08,1.08,0,0,0,1-1.21c-.06-2.65-.16-5.39-.25-8.17C38.23,43.73,37.86,33,39.29,25.07ZM28.28,7a26.94,26.94,0,0,1-2.12,6.09,7.24,7.24,0,0,1-13,0A26.94,26.94,0,0,1,11,7C14,14.2,25.34,14.2,28.28,7Zm8.19,47c.09,2.48.17,4.92.23,7.25a285.09,285.09,0,0,1-34.09,0c.06-2.33.14-4.77.23-7.25.35-9.94.71-20.45-.6-28.47,2.29-1.26,3.87-3.56,4.68-7.24S7.76,9.56,7,2.73l1.56-.36c.31,4.85,1.18,8.85,2.75,11.72a9.34,9.34,0,0,0,16.73,0c1.57-2.87,2.44-6.87,2.75-11.72l1.56.36c-.78,6.83-.74,11.88.06,15.52s2.39,6,4.68,7.24C35.76,33.51,36.12,44,36.47,54Z"/></g></g></svg>